<svg xmlns="http://www.w3.org/2000/svg" width="1120" height="720" viewBox="0 0 1120 720" role="img" aria-labelledby="title desc">
  <title id="title">Public camera page with authenticated PTZ live alignment controls</title>
  <desc id="desc">Illustrative browser screenshot showing the public Fenetre camera page after login, with PTZ manual controls and a lazy-loaded go2rtc live view.</desc>
  <rect width="1120" height="720" fill="#e8edf3"/>
  <rect x="38" y="38" width="1044" height="644" rx="8" fill="#ffffff" stroke="#c8ced8"/>
  <rect x="38" y="38" width="1044" height="44" rx="8" fill="#253041"/>
  <circle cx="64" cy="60" r="6" fill="#ff5f57"/>
  <circle cx="84" cy="60" r="6" fill="#ffbd2e"/>
  <circle cx="104" cy="60" r="6" fill="#28c840"/>
  <text x="134" y="66" font-family="Arial, sans-serif" font-size="15" fill="#d7dee9">http://camera-host:8888/</text>
  <rect x="72" y="112" width="976" height="60" fill="#ffffff"/>
  <text x="82" y="150" font-family="Arial, sans-serif" font-size="30" font-weight="700" fill="#1f2937">Camera List</text>
  <rect x="838" y="118" width="78" height="38" rx="5" fill="#ffffff" stroke="#9aa5b5"/>
  <text x="860" y="142" font-family="Arial, sans-serif" font-size="13" fill="#1f2937">Map</text>
  <rect x="928" y="118" width="102" height="38" rx="5" fill="#1664d9"/>
  <text x="952" y="142" font-family="Arial, sans-serif" font-size="13" font-weight="700" fill="#ffffff">operator</text>
  <rect x="82" y="190" width="966" height="454" rx="8" fill="#f8fafc" stroke="#d7dde7"/>
  <rect x="104" y="212" width="220" height="130" rx="5" fill="#d8dee8"/>
  <path d="M104 315l70-60 44 38 36-28 70 54v23H104z" fill="#a6b2c4"/>
  <circle cx="276" cy="250" r="20" fill="#eff4fb"/>
  <text x="350" y="246" font-family="Arial, sans-serif" font-size="22" font-weight="700" fill="#1f2937">Ridge-PTZ</text>
  <text x="350" y="276" font-family="Arial, sans-serif" font-size="15" fill="#5b6472">Last picture: 6/27/2026, 10:12:43 AM</text>
  <circle cx="1012" cy="246" r="8" fill="#28a745"/>
  <rect x="350" y="306" width="548" height="40" rx="6" fill="#ffffff" stroke="#b8c0cc"/>
  <text x="366" y="331" font-family="Arial, sans-serif" font-size="14" fill="#374151">Summit preset</text>
  <path d="M866 321l7 8 7-8" fill="none" stroke="#374151" stroke-width="2"/>
  <rect x="912" y="306" width="74" height="40" rx="6" fill="#1664d9"/>
  <text x="935" y="331" font-family="Arial, sans-serif" font-size="14" font-weight="700" fill="#ffffff">Go</text>
  <rect x="350" y="372" width="284" height="168" rx="6" fill="#ffffff" stroke="#d7dde7"/>
  <text x="372" y="404" font-family="Arial, sans-serif" font-size="15" font-weight="700" fill="#263143">Manual PTZ</text>
  <rect x="454" y="422" width="74" height="36" rx="5" fill="#1664d9"/>
  <text x="477" y="445" font-family="Arial, sans-serif" font-size="13" fill="#ffffff">Up</text>
  <rect x="372" y="466" width="74" height="36" rx="5" fill="#1664d9"/>
  <text x="395" y="489" font-family="Arial, sans-serif" font-size="13" fill="#ffffff">Left</text>
  <rect x="454" y="466" width="74" height="36" rx="5" fill="#475569"/>
  <text x="477" y="489" font-family="Arial, sans-serif" font-size="13" fill="#ffffff">Stop</text>
  <rect x="536" y="466" width="74" height="36" rx="5" fill="#1664d9"/>
  <text x="556" y="489" font-family="Arial, sans-serif" font-size="13" fill="#ffffff">Right</text>
  <rect x="454" y="510" width="74" height="36" rx="5" fill="#1664d9"/>
  <text x="471" y="533" font-family="Arial, sans-serif" font-size="13" fill="#ffffff">Down</text>
  <rect x="662" y="372" width="334" height="188" rx="6" fill="#111827" stroke="#0f172a"/>
  <rect x="674" y="384" width="310" height="142" fill="#1f2937"/>
  <path d="M674 505l92-76 63 48 47-38 108 84v3H674z" fill="#64748b"/>
  <circle cx="922" cy="420" r="28" fill="#eab308"/>
  <text x="686" y="548" font-family="Arial, sans-serif" font-size="13" fill="#dbeafe">go2rtc live view loads only while aligning PTZ</text>
  <text x="350" y="594" font-family="Arial, sans-serif" font-size="14" fill="#5b6472">Status: Moving</text>
  <text x="662" y="594" font-family="Arial, sans-serif" font-size="14" fill="#1664d9">Open live view</text>
</svg>
